# xmcd CD database file
#
# Track frame offsets:
#	150
#	20557
#	35537
#
# Disc length: 666 seconds
#
# Revision: 0
# Processed by: cddbd v1.5.1PL0 Copyright (c) Steve Scherf et al.
# Submitted via: CDex 1.51
#
DISCID=1d029803
DTITLE=eastern youth - 静寂が燃える
DYEAR=2000
DGENRE=Rock
TTITLE0=静寂が燃える
TTITLE1=大馬鹿流エモーション!
TTITLE2=午前四時
EXTD=YEAR: 2000
EXTT0=
EXTT1=
EXTT2=
PLAYORDER=
